<?xml version="1.0" encoding="UTF-8"?>
<svg id="Layer_1" data-name="Layer 1" xmlns="http://www.w3.org/2000/svg" viewBox="0 0 1336.2705 420.5404">
  <defs>
    <style>
      .cls-1 {
        fill: #f26522;
      }

      .cls-1, .cls-2 {
        stroke-width: 0px;
      }

      .cls-2 {
        fill: #364266;
      }
    </style>
  </defs>
  <g>
    <circle class="cls-1" cx="356.8065" cy="44.7598" r="44.7598"/>
    <g>
      <path class="cls-1" d="M250.4703,336.94c-49.8375,39.251-122.058,30.6689-161.3089-19.1687-39.251-49.8375-30.6688-122.058,19.1687-161.3089,13.5096-10.6398,28.6651-17.7573,44.3616-21.4986-1.8039-.2189-3.6159-.4145-5.4433-.5632C72.2762,128.3014,6.5549,184.134.4557,259.1063c-6.0991,74.9722,49.7335,140.6936,124.7057,146.7927,57.5442,4.6813,109.6348-27.1247,133.5027-76.0642-2.5958,2.4691-5.3231,4.8442-8.1938,7.1051Z"/>
      <path class="cls-1" d="M331.7387,233.2556c-2.098-25.9269-7.7178-51.1522-21.8481-74.7478-22.1881-37.0509-59.2854-64.1092-101.4223-73.6746-11.6173-2.6372-23.5268-3.9532-35.4388-3.9532-37.66,0-72.2632,13.0663-99.5428,34.9017,10.7114-2.0284,21.7604-3.1026,33.0619-3.1026,97.5554,0,176.6398,72.9947,176.6398,176.6398,0,13.4599.0003,116.6514.0003,116.6514,0,0,49.2662,0,49.2662,0v-94.9488c0-26.0116,1.3502-52.2292-.7162-77.766Z"/>
    </g>
    <path class="cls-1" d="M381.8743,233.2556c2.098-25.9269,7.7178-51.1522,21.8481-74.7478,22.1881-37.0509,59.2854-64.1092,101.4223-73.6746,11.6173-2.6372,23.5268-3.9532,35.4388-3.9532,37.66,0,72.2632,13.0663,99.5428,34.9017-10.7114-2.0284-21.7604-3.1026-33.0619-3.1026-97.5554,0-176.6398,72.9947-176.6398,176.6398,0,13.4599-.0003,116.6514-.0003,116.6514,0,0-49.2662,0-49.2662,0,0-31.6496,0-63.2992,0-94.9488,0-26.0116-1.3502-52.2292.7162-77.766Z"/>
  </g>
  <g>
    <g>
      <path class="cls-2" d="M748.6953,325.2142l-5.1602,15.8203h-4.6387c4.3779-13.0156,11.1113-33.3682,16.0146-48.1348h5.6982l16.6611,48.1348h-4.9824l-5.2637-15.8203h-18.3291ZM765.7675,321.1361c-4.4629-13.3574-7.2266-20.626-8.1055-24.2217h-.1279c-1.4033,5.7969-4.0146,13.1777-7.6514,24.2217h15.8848Z"/>
      <path class="cls-2" d="M808.3974,331.3099c0,4.127.0693,8.0811.1387,9.7246h-4.2314c-.209-.9375-.2783-3.3203-.29-6.0752-1.3711,3.8125-5.083,6.7012-10.502,6.7012-4.8926,0-10.668-1.959-10.668-11.9639v-23.6445h4.3828v22.6768c0,4.8408,1.4961,8.9561,7.376,8.9561,5.4355,0,9.2832-3.7422,9.2832-12.0566v-19.5762h4.5107v25.2578Z"/>
      <path class="cls-2" d="M820.1025,331.1732c.7559,4.4268,4.0557,6.8535,8.5713,6.8535,5.4414,0,7.4131-3.0742,7.4131-6.3389,0-3.4971-2.3086-5.4297-8.4785-7.0752-8.2266-2.1973-10.5088-5.2539-10.5088-9.8252,0-4.6943,3.3057-9.4307,11.1348-9.4307,8.1094,0,11.1719,4.6445,11.6475,9.8389h-4.3486c-.6758-3.1973-2.3018-6.2051-7.4932-6.2051-4.501,0-6.4756,2.2461-6.4756,5.4658,0,2.9053,1.2852,4.498,7.5166,6.1582,8.668,2.3389,11.4824,5.2061,11.4824,10.7422,0,6.2354-4.8203,10.3037-12.0508,10.3037-6.7246,0-12.1699-3.2734-12.8174-10.4873h4.4072Z"/>
      <path class="cls-2" d="M843.75,306.0521h5.8701v-10.4219h4.3818v10.4219h7.3662v3.7812h-7.3662v23.3779c0,3.1221.79,4.4453,3.8262,4.4453,1.0098,0,2.2578-.1162,2.9502-.2549v3.5186c-1.1875.4512-2.9756.5781-4.1797.5781-4.4512,0-6.9785-1.6465-6.9785-7.1865v-24.4785h-5.8701v-3.7812Z"/>
      <path class="cls-2" d="M867.2685,317.9369c0-5.5117-.0586-10.4102-.1396-11.8848h4.3486c.0928,1.7041.1035,3.9404.1035,7.46,1.8125-4.8711,5.9697-8.0166,11.5928-8.1328v4.6963c-8.1172.4336-11.5117,5.8936-11.5117,13.2549v17.7041h-4.3936v-23.0977Z"/>
      <path class="cls-2" d="M911.7734,333.765c0,2.4326.2559,5.667.5449,7.2695h-4.123c-.2197-1.2764-.4873-3.0918-.498-5.8525-1.2959,3.7725-4.9248,6.4785-10.875,6.4785-8.501,0-10.9512-5.9004-10.9512-10.5869,0-4.876,3.0342-10.9648,15.7119-10.9648h5.8301v-3.7178c0-3.4922-.9619-7.376-7.5869-7.376-5.4805,0-7.541,2.4355-8.2275,6.7842h-4.3369c.5811-5.9814,3.9873-10.4424,12.7617-10.4424,6.9502,0,11.75,2.9785,11.75,10.6846v17.7236ZM907.5273,323.597h-6.0273c-9.3057,0-11.0605,3.7754-11.0605,7.2842,0,3.8008,2.3135,6.915,7.0625,6.915,7.3955,0,10.0254-5.0049,10.0254-13.4932v-.7061Z"/>
      <path class="cls-2" d="M922.3945,341.0345v-50.6572h4.3936v50.6572h-4.3936Z"/>
      <path class="cls-2" d="M937.4091,290.3773h4.3936v7.042h-4.3936v-7.042ZM937.4091,306.0521h4.3936v34.9824h-4.3936v-34.9824Z"/>
      <path class="cls-2" d="M975.7265,333.765c0,2.4326.2559,5.667.5449,7.2695h-4.123c-.2197-1.2764-.4873-3.0918-.498-5.8525-1.2959,3.7725-4.9248,6.4785-10.875,6.4785-8.501,0-10.9512-5.9004-10.9512-10.5869,0-4.876,3.0342-10.9648,15.7119-10.9648h5.8301v-3.7178c0-3.4922-.9619-7.376-7.5869-7.376-5.4805,0-7.541,2.4355-8.2275,6.7842h-4.3369c.5811-5.9814,3.9873-10.4424,12.7617-10.4424,6.9502,0,11.75,2.9785,11.75,10.6846v17.7236ZM971.4804,323.597h-6.0273c-9.3057,0-11.0605,3.7754-11.0605,7.2842,0,3.8008,2.3135,6.915,7.0625,6.915,7.3955,0,10.0254-5.0049,10.0254-13.4932v-.7061Z"/>
      <path class="cls-2" d="M986.3476,317.0219c0-7.3213-.0693-9.4873-.1396-10.9697h4.3496c.0801.6836.2305,4.4619.1719,5.8496,1.46-3.2949,4.5273-6.5449,10.5254-6.5449,6.1514,0,11.167,3.2656,11.167,13.2451v22.4326h-4.4512v-21.876c0-5.5166-2.002-9.7676-7.5381-9.7676-7.0342,0-9.6914,5.46-9.6914,13.2588v18.3848h-4.3936v-24.0127Z"/>
      <path class="cls-2" d="M748.2959,358.3959v48.1348h-4.5547v-48.1348h4.5547Z"/>
      <path class="cls-2" d="M758.8261,382.5179c0-7.3213-.0693-9.4873-.1396-10.9697h4.3496c.0801.6836.2305,4.4619.1719,5.8496,1.46-3.2949,4.5273-6.5449,10.5254-6.5449,6.1514,0,11.167,3.2656,11.167,13.2451v22.4326h-4.4512v-21.876c0-5.5166-2.002-9.7676-7.5381-9.7676-7.0342,0-9.6914,5.46-9.6914,13.2588v18.3848h-4.3936v-24.0127Z"/>
      <path class="cls-2" d="M821.6025,355.8734v41.7803c0,3.0957.0107,6.6748.1387,8.877h-4.3486c-.0811-.915-.1729-3.1758-.1729-5.5498-1.9014,4.4375-4.835,6.1865-10.6523,6.1865-9.1182,0-13.5654-7.7891-13.5654-18.0586,0-9.9336,5.0928-18.2559,14.5918-18.2559,5.8086,0,8.6172,2.4385,9.6152,4.5762v-19.5557h4.3936ZM797.6045,388.8783c0,9.2441,4.2227,14.3359,9.9287,14.3359,8.1162,0,9.8125-6.334,9.8125-15.0615,0-10.5566-3.2949-13.335-9.418-13.335-6.3057,0-10.3232,5.1934-10.3232,14.0605Z"/>
      <path class="cls-2" d="M834.2724,389.7689c-.0586,8.0264,3.4336,13.5957,9.9785,13.5957,6.1807,0,8.0742-4.4648,8.7939-6.4033h4.3604c-.9434,3.8164-4.0967,10.2529-13.4326,10.2529-10.8506,0-14.2217-8.9893-14.2217-18.3389,0-8.5596,4.1689-18.0225,14.5225-18.0225,10.6709,0,13.7236,8.6201,13.7236,16.335,0,.0889-.0107,2.4805-.0215,2.5811h-23.7031ZM853.5908,386.2582c-.1982-6.709-2.8838-11.6104-9.4561-11.6104-7.5742,0-9.3506,7.0449-9.7236,11.6104h19.1797Z"/>
      <path class="cls-2" d="M870.4003,401.8705v18.6699h-4.3818v-38.623c0-4.8076.0107-8.2393-.1279-10.3691h4.3486c.0811,1.2285.1504,4.0068.1611,6.0361,1.8828-3.9863,5.5029-6.7314,11.2119-6.7314,7.7305,0,12.9951,6.2148,12.9951,17.5469,0,11.9131-6.207,18.6982-14.3242,18.6982-5.2783,0-8.2812-2.2188-9.8828-5.2275ZM890.0166,388.597c0-8.7451-3.5625-13.7793-9.6953-13.7793-7.8047,0-10.1152,5.6406-10.1152,14.3496,0,8.0859,1.4346,13.9883,9.7197,13.9883,6.2568,0,10.0908-5.3076,10.0908-14.5586Z"/>
      <path class="cls-2" d="M904.7607,389.7689c-.0586,8.0264,3.4336,13.5957,9.9785,13.5957,6.1807,0,8.0742-4.4648,8.7939-6.4033h4.3604c-.9434,3.8164-4.0967,10.2529-13.4326,10.2529-10.8506,0-14.2217-8.9893-14.2217-18.3389,0-8.5596,4.1689-18.0225,14.5225-18.0225,10.6709,0,13.7236,8.6201,13.7236,16.335,0,.0889-.0107,2.4805-.0215,2.5811h-23.7031ZM924.0791,386.2582c-.1982-6.709-2.8838-11.6104-9.4561-11.6104-7.5742,0-9.3506,7.0449-9.7236,11.6104h19.1797Z"/>
      <path class="cls-2" d="M936.5058,382.5179c0-7.3213-.0693-9.4873-.1396-10.9697h4.3496c.0801.6836.2305,4.4619.1719,5.8496,1.46-3.2949,4.5273-6.5449,10.5254-6.5449,6.1514,0,11.167,3.2656,11.167,13.2451v22.4326h-4.4512v-21.876c0-5.5166-2.002-9.7676-7.5381-9.7676-7.0342,0-9.6914,5.46-9.6914,13.2588v18.3848h-4.3936v-24.0127Z"/>
      <path class="cls-2" d="M999.2822,355.8734v41.7803c0,3.0957.0107,6.6748.1387,8.877h-4.3486c-.0811-.915-.1729-3.1758-.1729-5.5498-1.9014,4.4375-4.835,6.1865-10.6523,6.1865-9.1182,0-13.5654-7.7891-13.5654-18.0586,0-9.9336,5.0928-18.2559,14.5918-18.2559,5.8086,0,8.6172,2.4385,9.6152,4.5762v-19.5557h4.3936ZM975.2841,388.8783c0,9.2441,4.2227,14.3359,9.9287,14.3359,8.1162,0,9.8125-6.334,9.8125-15.0615,0-10.5566-3.2949-13.335-9.418-13.335-6.3057,0-10.3232,5.1934-10.3232,14.0605Z"/>
      <path class="cls-2" d="M1011.9521,389.7689c-.0586,8.0264,3.4336,13.5957,9.9785,13.5957,6.1807,0,8.0742-4.4648,8.7939-6.4033h4.3604c-.9434,3.8164-4.0967,10.2529-13.4326,10.2529-10.8506,0-14.2217-8.9893-14.2217-18.3389,0-8.5596,4.1689-18.0225,14.5225-18.0225,10.6709,0,13.7236,8.6201,13.7236,16.335,0,.0889-.0107,2.4805-.0215,2.5811h-23.7031ZM1031.2705,386.2582c-.1982-6.709-2.8838-11.6104-9.4561-11.6104-7.5742,0-9.3506,7.0449-9.7236,11.6104h19.1797Z"/>
      <path class="cls-2" d="M1043.6982,382.5179c0-7.3213-.0693-9.4873-.1396-10.9697h4.3486c.0811.6836.2314,4.4619.1729,5.8496,1.46-3.2949,4.5273-6.5449,10.5254-6.5449,6.1514,0,11.167,3.2656,11.167,13.2451v22.4326h-4.4512v-21.876c0-5.5166-2.002-9.7676-7.5381-9.7676-7.0342,0-9.6914,5.46-9.6914,13.2588v18.3848h-4.3936v-24.0127Z"/>
      <path class="cls-2" d="M1075.0966,371.5482h5.8701v-10.4219h4.3818v10.4219h7.3662v3.7812h-7.3662v23.3779c0,3.1221.79,4.4453,3.8262,4.4453,1.0098,0,2.2578-.1162,2.9502-.2549v3.5186c-1.1875.4512-2.9756.5781-4.1797.5781-4.4512,0-6.9785-1.6465-6.9785-7.1865v-24.4785h-5.8701v-3.7812Z"/>
      <path class="cls-2" d="M1121.4755,383.8998v22.6309h-4.5791v-48.1348h16.0996c8.29,0,14.0654,4.1104,14.0654,12.1826,0,7.0967-4.376,10.166-8.0586,11.2402,5.125,1.5264,7.4248,5.5615,7.4248,12.3242v.7373c0,4.5205.0439,8.7754.6836,11.6504h-4.6045c-.6367-1.8994-.7871-6.8037-.7871-11.5088v-.8545c0-7.3037-2.6357-10.2676-11.1602-10.2676h-9.084ZM1121.4755,379.9935h9.4512c6.8672,0,11.3691-1.9883,11.3691-9.2588,0-5.4082-3.5371-8.4326-9.9316-8.4326h-10.8887v17.6914Z"/>
      <path class="cls-2" d="M1158.7666,389.7689c-.0586,8.0264,3.4336,13.5957,9.9785,13.5957,6.1807,0,8.0742-4.4648,8.7939-6.4033h4.3604c-.9434,3.8164-4.0967,10.2529-13.4326,10.2529-10.8506,0-14.2217-8.9893-14.2217-18.3389,0-8.5596,4.1689-18.0225,14.5225-18.0225,10.6709,0,13.7236,8.6201,13.7236,16.335,0,.0889-.0107,2.4805-.0215,2.5811h-23.7031ZM1178.0849,386.2582c-.1982-6.709-2.8838-11.6104-9.4561-11.6104-7.5742,0-9.3506,7.0449-9.7236,11.6104h19.1797Z"/>
      <path class="cls-2" d="M1186.1796,371.5482h5.8701v-10.4219h4.3818v10.4219h7.3662v3.7812h-7.3662v23.3779c0,3.1221.79,4.4453,3.8262,4.4453,1.0098,0,2.2578-.1162,2.9502-.2549v3.5186c-1.1875.4512-2.9756.5781-4.1797.5781-4.4512,0-6.9785-1.6465-6.9785-7.1865v-24.4785h-5.8701v-3.7812Z"/>
      <path class="cls-2" d="M1210.1845,355.8734h4.3936v7.042h-4.3936v-7.042ZM1210.1845,371.5482h4.3936v34.9824h-4.3936v-34.9824Z"/>
      <path class="cls-2" d="M1225.1992,383.433c0-5.5117-.0586-10.4102-.1396-11.8848h4.3496c.0918,1.7041.1025,3.9404.1025,7.46,1.8125-4.8711,5.9697-8.0166,11.5928-8.1328v4.6963c-8.1172.4336-11.5117,5.8936-11.5117,13.2549v17.7041h-4.3936v-23.0977Z"/>
      <path class="cls-2" d="M1248.6474,389.7689c-.0586,8.0264,3.4336,13.5957,9.9785,13.5957,6.1807,0,8.0742-4.4648,8.7939-6.4033h4.3604c-.9434,3.8164-4.0967,10.2529-13.4326,10.2529-10.8506,0-14.2217-8.9893-14.2217-18.3389,0-8.5596,4.1689-18.0225,14.5225-18.0225,10.6709,0,13.7236,8.6201,13.7236,16.335,0,.0889-.0107,2.4805-.0215,2.5811h-23.7031ZM1267.9658,386.2582c-.1982-6.709-2.8838-11.6104-9.4561-11.6104-7.5742,0-9.3506,7.0449-9.7236,11.6104h19.1797Z"/>
      <path class="cls-2" d="M1282.7089,389.7689c-.0586,8.0264,3.4336,13.5957,9.9785,13.5957,6.1807,0,8.0742-4.4648,8.7939-6.4033h4.3604c-.9434,3.8164-4.0967,10.2529-13.4326,10.2529-10.8506,0-14.2217-8.9893-14.2217-18.3389,0-8.5596,4.1689-18.0225,14.5225-18.0225,10.6709,0,13.7236,8.6201,13.7236,16.335,0,.0889-.0107,2.4805-.0215,2.5811h-23.7031ZM1302.0273,386.2582c-.1982-6.709-2.8838-11.6104-9.4561-11.6104-7.5742,0-9.3506,7.0449-9.7236,11.6104h19.1797Z"/>
      <path class="cls-2" d="M1315.8095,396.6693c.7559,4.4268,4.0557,6.8535,8.5713,6.8535,5.4414,0,7.4131-3.0742,7.4131-6.3389,0-3.4971-2.3086-5.4297-8.4785-7.0752-8.2266-2.1973-10.5088-5.2539-10.5088-9.8252,0-4.6943,3.3057-9.4307,11.1348-9.4307,8.1094,0,11.1719,4.6445,11.6475,9.8389h-4.3486c-.6758-3.1973-2.3018-6.2051-7.4932-6.2051-4.501,0-6.4756,2.2461-6.4756,5.4658,0,2.9053,1.2852,4.498,7.5166,6.1582,8.668,2.3389,11.4824,5.2061,11.4824,10.7422,0,6.2354-4.8203,10.3037-12.0508,10.3037-6.7246,0-12.1699-3.2734-12.8174-10.4873h4.4072Z"/>
    </g>
    <g>
      <path class="cls-2" d="M737.9052,45.0668h12.8857v11.8555h-12.8857v-11.8555ZM737.9052,64.9408h12.8857v49.0703h-12.8857v-49.0703Z"/>
      <path class="cls-2" d="M762.9316,80.2416c0-10.1211-.0947-13.1436-.1895-15.3008h12.5518c.1777.8643.4512,4.0371.4395,6.3398,1.9912-3.8115,6.6514-7.2881,13.6709-7.2881,10.2998,0,15.502,6.5693,15.502,17.8574v32.1611h-12.8965v-29.6963c0-5.543-1.3643-9.7021-7.4805-9.7021-5.8379,0-8.7119,3.4189-8.7119,12.0068v27.3916h-12.8857v-33.7695Z"/>
      <path class="cls-2" d="M859.4433,45.0668v55.2695c0,5.7227.083,10.8076.1895,13.6748h-12.5518c-.1777-1.3154-.4395-4.1943-.4395-5.7939-2.3203,4.2773-5.9805,6.7305-13.7764,6.7305-12.5029,0-18.9766-10.2119-18.9766-25.377,0-14.7744,7.8994-25.5781,21.127-25.5781,7.3066,0,10.4541,2.5059,11.542,4.4658v-23.3916h12.8857ZM827.0586,89.1195c0,9.1943,3.0967,15.3867,10.0586,15.3867,8.4062,0,10.0361-5.7021,10.0361-15.2842,0-10.5059-2.1035-14.7041-9.6338-14.7041-6.3477,0-10.4609,4.8301-10.4609,14.6016Z"/>
      <path class="cls-2" d="M882.1025,92.3812c-.0117,6.0312,2.293,12.3975,9.5811,12.3975,5.835,0,7.666-3.6318,8.375-5.7969h12.6348c-2.3779,8.1396-8.1123,15.8936-21.3887,15.8936-15.6846,0-22.1934-10.6895-22.1934-25.3496,0-12.1504,6.0947-25.5332,22.7393-25.5332,16.4619,0,21.4453,11.7559,21.4453,24.3916,0,.668-.083,3.2461-.167,3.9971h-31.0264ZM900.7334,83.9769c-.2012-5.5312-2.4297-10.3047-9.0723-10.3047-7.3252,0-9.1338,5.9209-9.3691,10.3047h18.4414Z"/>
      <path class="cls-2" d="M935.2802,109.7728v23.1377h-12.8018v-53.7607c0-6.625.084-11.0312-.1055-14.209h12.5508c.1787,1.5391.2734,4.0303.3564,6.457,1.748-3.458,5.8662-7.4053,14.1289-7.4053,10.2012,0,18.54,7.793,18.54,24.9521,0,15.9727-9.0098,25.9082-20.8301,25.9082-6.3105,0-10.0645-2.1387-11.8389-5.0801ZM954.8632,89.1459c0-10.5605-4.1064-14.6279-10.0137-14.6279-7.7764,0-10.1758,4.3477-10.1758,15.0645,0,9.4561,2.2295,14.9121,9.7744,14.9121,6.8252,0,10.415-5.2588,10.415-15.3486Z"/>
      <path class="cls-2" d="M987.706,92.3812c-.0117,6.0312,2.293,12.3975,9.5811,12.3975,5.835,0,7.666-3.6318,8.375-5.7969h12.6348c-2.3779,8.1396-8.1123,15.8936-21.3887,15.8936-15.6846,0-22.1934-10.6895-22.1934-25.3496,0-12.1504,6.0947-25.5332,22.7393-25.5332,16.4619,0,21.4453,11.7559,21.4453,24.3916,0,.668-.083,3.2461-.167,3.9971h-31.0264ZM1006.3369,83.9769c-.2012-5.5312-2.4297-10.3047-9.0723-10.3047-7.3252,0-9.1338,5.9209-9.3691,10.3047h18.4414Z"/>
      <path class="cls-2" d="M1028.082,80.2416c0-10.1211-.0947-13.1436-.1895-15.3008h12.5518c.1777.8643.4512,4.0371.4395,6.3398,1.9912-3.8115,6.6514-7.2881,13.6709-7.2881,10.2998,0,15.502,6.5693,15.502,17.8574v32.1611h-12.8965v-29.6963c0-5.543-1.3643-9.7021-7.4805-9.7021-5.8379,0-8.7119,3.4189-8.7119,12.0068v27.3916h-12.8857v-33.7695Z"/>
      <path class="cls-2" d="M1124.5937,45.0668v55.2695c0,5.7227.083,10.8076.1895,13.6748h-12.5518c-.1777-1.3154-.4395-4.1943-.4395-5.7939-2.3203,4.2773-5.9805,6.7305-13.7764,6.7305-12.5029,0-18.9766-10.2119-18.9766-25.377,0-14.7744,7.8994-25.5781,21.127-25.5781,7.3066,0,10.4541,2.5059,11.542,4.4658v-23.3916h12.8857ZM1092.2089,89.1195c0,9.1943,3.0967,15.3867,10.0586,15.3867,8.4062,0,10.0361-5.7021,10.0361-15.2842,0-10.5059-2.1035-14.7041-9.6338-14.7041-6.3477,0-10.4609,4.8301-10.4609,14.6016Z"/>
      <path class="cls-2" d="M1147.2529,92.3812c-.0117,6.0312,2.293,12.3975,9.5811,12.3975,5.835,0,7.666-3.6318,8.375-5.7969h12.6348c-2.3779,8.1396-8.1123,15.8936-21.3887,15.8936-15.6846,0-22.1934-10.6895-22.1934-25.3496,0-12.1504,6.0947-25.5332,22.7393-25.5332,16.4619,0,21.4453,11.7559,21.4453,24.3916,0,.668-.083,3.2461-.167,3.9971h-31.0264ZM1165.8837,83.9769c-.2012-5.5312-2.4297-10.3047-9.0723-10.3047-7.3252,0-9.1338,5.9209-9.3691,10.3047h18.4414Z"/>
      <path class="cls-2" d="M1187.6289,80.2416c0-10.1211-.0947-13.1436-.1895-15.3008h12.5518c.1777.8643.4512,4.0371.4395,6.3398,1.9912-3.8115,6.6514-7.2881,13.6709-7.2881,10.2998,0,15.502,6.5693,15.502,17.8574v32.1611h-12.8965v-29.6963c0-5.543-1.3643-9.7021-7.4805-9.7021-5.8379,0-8.7119,3.4189-8.7119,12.0068v27.3916h-12.8857v-33.7695Z"/>
      <path class="cls-2" d="M1282.413,96.8812c-1.4404,9.8516-7.6406,17.9941-21.4229,17.9941-15.0176,0-22.0713-9.3057-22.0713-25.3389,0-15.541,8.6318-25.5439,22.8564-25.5439,16.043,0,20.3467,11.5225,20.627,18.3242h-12.8242c-.4814-4.4092-2.5098-8.4775-8.0645-8.4775-6.7939,0-9.5088,6.2061-9.5088,15.208,0,11.4746,3.4502,16.0654,9.2588,16.0654,5.5586,0,7.3252-3.6211,8.4092-8.2314h12.7402Z"/>
      <path class="cls-2" d="M1301.6796,92.3812c-.0117,6.0312,2.293,12.3975,9.5811,12.3975,5.835,0,7.666-3.6318,8.375-5.7969h12.6348c-2.3779,8.1396-8.1123,15.8936-21.3887,15.8936-15.6846,0-22.1934-10.6895-22.1934-25.3496,0-12.1504,6.0947-25.5332,22.7393-25.5332,16.4619,0,21.4453,11.7559,21.4453,24.3916,0,.668-.083,3.2461-.167,3.9971h-31.0264ZM1320.3105,83.9769c-.2012-5.5312-2.4297-10.3047-9.0723-10.3047-7.3252,0-9.1338,5.9209-9.3691,10.3047h18.4414Z"/>
      <path class="cls-2" d="M737.9052,162.307c0-9.6934-.0947-12.9531-.1895-15.2061h12.4678c.2617,1.6377.3682,3.9697.4404,5.8203,2.5752-3.9326,6.9014-6.7686,13.6172-6.7686,6.6631,0,10.5117,3.3105,12.2412,7.6367,2.1689-3.8945,7.3867-7.6367,14.6865-7.6367,8.3057,0,15.6436,4.4033,15.6436,17.0957v32.9229h-12.6348v-30.8184c0-4.4053-1.585-8.6631-7.0332-8.6631-5.9453,0-8.3789,4.2451-8.3789,11.541v27.9404h-12.623v-31.209c0-4.417-2.0703-8.1895-7.083-8.1895-5.5811,0-8.4355,3.4307-8.4355,12.0723v27.3262h-12.7188v-33.8643Z"/>
      <path class="cls-2" d="M857.1572,183.4584c0,3.3184.2119,9.2314.6748,12.7129h-11.2881c-.3672-1.4678-.6631-4.4219-.7471-5.9336-2.04,3.9844-6.6475,6.7871-13.7383,6.7871-12.1387,0-16.4355-7.5693-16.4355-14.9834,0-8.833,6.1182-16.1133,23.1328-16.1133h5.7666v-3.5674c0-4.0117-1.2432-7.124-7.002-7.124-5.6992,0-7.0752,2.9121-7.5342,6.5215h-12.4668c.5186-7.7471,5.1641-15.6055,20.2012-15.6055,11.5938,0,19.4365,3.9932,19.4365,16.1396v21.166ZM844.9511,174.1664h-5.9678c-8.7998,0-10.4414,3.5791-10.4414,6.8623,0,3.3398,1.9941,6.2217,6.9004,6.2217,7.6973,0,9.5088-5.1191,9.5088-12.0527v-1.0312Z"/>
      <path class="cls-2" d="M862.9697,147.101h6.9121v-13.3252h12.8018v13.3252h8.748v10.002h-8.748v25.1914c0,3.3711.8037,4.7666,4.8086,4.7666,1.1709,0,1.5762-.0234,2.9307-.2129v8.8945c-2.5068.8193-6.1064.9258-7.8848.9258-9.4824,0-12.6562-3.8164-12.6562-12.9404v-26.625h-6.9121v-10.002Z"/>
      <path class="cls-2" d="M893.6836,147.101h6.9121v-13.3252h12.8018v13.3252h8.748v10.002h-8.748v25.1914c0,3.3711.8037,4.7666,4.8086,4.7666,1.1709,0,1.5762-.0234,2.9307-.2129v8.8945c-2.5068.8193-6.1064.9258-7.8848.9258-9.4824,0-12.6562-3.8164-12.6562-12.9404v-26.625h-6.9121v-10.002Z"/>
      <path class="cls-2" d="M939.1718,174.5414c-.0117,6.0312,2.293,12.3975,9.5811,12.3975,5.835,0,7.666-3.6318,8.375-5.7969h12.6348c-2.3779,8.1396-8.1123,15.8936-21.3887,15.8936-15.6846,0-22.1934-10.6895-22.1934-25.3496,0-12.1504,6.0947-25.5332,22.7393-25.5332,16.4619,0,21.4453,11.7559,21.4453,24.3916,0,.668-.083,3.2461-.167,3.9971h-31.0264ZM957.8027,166.1371c-.2012-5.5312-2.4297-10.3047-9.0723-10.3047-7.3252,0-9.1338,5.9209-9.3691,10.3047h18.4414Z"/>
      <path class="cls-2" d="M979.5478,163.7181c0-8.0625-.0107-13.2422-.1895-16.6172h12.5518c.2617,2.1191.3447,5.2363.3447,8.6035,1.6533-4.1172,5.957-9.3623,14.8535-9.3848v13.0254c-10.1133-.1602-14.6748,3.2588-14.6748,14.5254v22.3008h-12.8857v-32.4531Z"/>
      <path class="cls-2" d="M1024.0996,181.0853c.5537,4.1934,3.5527,6.6162,8.4141,6.6162,4.5527,0,6.9678-1.7354,6.9678-4.8906,0-3.1992-2.8057-4.4688-10.2646-6.5771-13.0605-3.6787-16.1055-8.2559-16.1055-15.2412,0-6.1963,3.8945-14.8398,18.666-14.8398,13.0381,0,18.5107,6.6748,19.0908,14.9189h-12.5508c-.375-2.6543-1.9102-5.5957-7.1465-5.5957-3.4766,0-5.4863,1.4932-5.4863,4.3135,0,2.5977,1.957,3.8818,9.0215,5.668,13.3906,3.4629,17.4326,8.3281,17.4326,16.1514,0,10.0723-8.415,15.416-19.9814,15.416-12.0381,0-19.5996-5.3516-20.6201-15.9395h12.5625Z"/>
    </g>
    <rect class="cls-1" x="737.832" y="242.4437" width="596.6562" height="11"/>
  </g>
</svg>